<?xml version="1.0" standalone="no"?><!DOCTYPE svg PUBLIC "-//W3C//DTD SVG 1.1//EN" "http://www.w3.org/Graphics/SVG/1.1/DTD/svg11.dtd"><svg t="1624763384104" class="icon" viewBox="0 0 1024 1024" version="1.1" xmlns="http://www.w3.org/2000/svg" p-id="2204" xmlns:xlink="http://www.w3.org/1999/xlink" width="200" height="200"><defs><style type="text/css"></style></defs><path d="M512 128a384 384 0 1 1-384 384 384.426667 384.426667 0 0 1 384-384m0-64a448 448 0 1 0 448 448 448 448 0 0 0-448-448z" fill="#333333" p-id="2205"></path><path d="M696 482.666667h-352v64h352a32 32 0 0 0 0-64z" fill="#333333" p-id="2206"></path><path d="M488.48 317.066667a34.133333 34.133333 0 0 0-24.053333 9.973333L322.08 469.333333a64 64 0 0 0 0 90.666667l143.306667 143.306667a32 32 0 0 0 45.92-0.746667 32.906667 32.906667 0 0 0-1.6-45.493333l-142.4-142.4 143.306666-143.306667a32 32 0 0 0-0.693333-46.026667 31.093333 31.093333 0 0 0-21.333333-8.373333z" fill="#333333" p-id="2207"></path></svg>