<?xml version="1.0" standalone="no"?><!DOCTYPE svg PUBLIC "-//W3C//DTD SVG 1.1//EN" "http://www.w3.org/Graphics/SVG/1.1/DTD/svg11.dtd"><svg t="1624666534696" class="icon" viewBox="0 0 1024 1024" version="1.1" xmlns="http://www.w3.org/2000/svg" p-id="3670" xmlns:xlink="http://www.w3.org/1999/xlink" width="200" height="200"><defs><style type="text/css"></style></defs><path d="M790.63 745.37L682.25 637C717.1 592.29 736 537.6 736 480c0-68.38-26.63-132.67-74.98-181.02C612.67 250.63 548.38 224 480 224c-68.38 0-132.67 26.63-181.02 74.98C250.63 347.33 224 411.62 224 480c0 68.38 26.63 132.67 74.98 181.02C347.33 709.37 411.62 736 480 736c57.6 0 112.29-18.9 157-53.75l108.37 108.37c6.25 6.25 14.44 9.37 22.63 9.37s16.38-3.12 22.63-9.37c12.49-12.49 12.49-32.75 0-45.25zM288 480c0-105.87 86.13-192 192-192s192 86.13 192 192-86.13 192-192 192-192-86.13-192-192z" p-id="3671"></path></svg>