<?xml version="1.0" standalone="no"?><!DOCTYPE svg PUBLIC "-//W3C//DTD SVG 1.1//EN" "http://www.w3.org/Graphics/SVG/1.1/DTD/svg11.dtd"><svg t="1625035213449" class="icon" viewBox="0 0 1024 1024" version="1.1" xmlns="http://www.w3.org/2000/svg" p-id="3090" xmlns:xlink="http://www.w3.org/1999/xlink" width="200" height="200"><defs><style type="text/css"></style></defs><path d="M378.235259 720.592593l29.05126-76.079408h133.575111L569.912889 720.592593H625.777778l-121.969778-303.407408h-59.467852L322.37037 720.592593h55.864889z m147.000889-116.849778h-102.324148l50.479407-133.006222h1.782519l50.062222 133.006222z" fill="#1296db" p-id="3091"></path><path d="M278.603852 227.555556h390.940444c44.373333 0 64.018963 4.058074 80.630519 11.681185l7.016296 3.527111c18.583704 9.898667 33.109333 24.462222 43.008 43.008l3.527111 7.016296c7.623111 16.611556 11.681185 36.257185 11.681185 80.630519v428.86637c0 44.373333-4.058074 64.018963-11.681185 80.630519l-3.527111 7.016296a103.386074 103.386074 0 0 1-43.008 43.008l-7.016296 3.527111c-16.611556 7.623111-36.257185 11.681185-80.630519 11.681185H278.603852c-44.373333 0-64.018963-4.058074-80.630519-11.681185l-7.016296-3.527111A103.386074 103.386074 0 0 1 147.911111 889.931852l-3.527111-7.016296c-7.092148-15.435852-11.07437-33.450667-11.605333-71.490371L132.740741 373.380741c0-44.373333 4.058074-63.981037 11.681185-80.592593l3.527111-7.016296A103.386074 103.386074 0 0 1 190.957037 242.725926l7.016296-3.527111C214.584889 231.61363 234.230519 227.555556 278.603852 227.555556zM676.598519 303.407407H271.54963l-11.946667 0.227556-9.40563 0.455111c-8.343704 0.568889-13.539556 1.517037-17.711407 2.996148l-3.90637 1.630815a27.572148 27.572148 0 0 0-13.729186 12.818963l-0.948148 1.85837-1.630815 3.906371a58.55763 58.55763 0 0 0-2.654814 13.805037l-0.606815 8.343703-0.303408 10.61926L208.592593 373.380741V809.339259l0.227555 11.946667 0.455111 9.40563c0.568889 8.343704 1.517037 13.539556 2.996148 17.711407l1.630815 3.90637c0.265481 0.644741 0.606815 1.251556 0.910222 1.896297 2.844444 5.30963 6.599111 9.02637 11.908741 11.870814l1.858371 0.910223 3.90637 1.630814c3.489185 1.21363 7.698963 2.085926 13.805037 2.654815l8.343704 0.606815 10.619259 0.303408 13.349926 0.113777H676.598519l11.946666-0.227555 9.40563-0.455111c8.343704-0.568889 13.539556-1.517037 17.711407-2.996149l3.906371-1.630814c0.644741-0.265481 1.251556-0.606815 1.896296-0.910223a27.572148 27.572148 0 0 0 11.870815-11.90874l0.910222-1.858371 1.630815-3.90637c1.21363-3.489185 2.085926-7.698963 2.654815-13.805037l0.606814-8.343704 0.303408-10.619259 0.113778-13.349926V366.364444l-0.227556-11.946666-0.455111-9.40563a67.659852 67.659852 0 0 0-2.996148-17.711407l-1.630815-3.906371a27.572148 27.572148 0 0 0-12.818963-13.729185l-1.85837-0.948148-3.906371-1.630815a58.55763 58.55763 0 0 0-13.805037-2.654815l-8.343704-0.606814-10.619259-0.303408L676.598519 303.407407z" fill="#1296db" p-id="3092"></path><path d="M783.208296 113.777778c39.139556 0 59.164444 3.223704 80.327111 12.629333 20.328296 9.02637 36.901926 22.831407 48.355556 40.618667 11.719111 18.204444 16.497778 36.067556 17.180444 66.029037L929.185185 241.588148V706.56c0 35.195259-4.551111 54.651259-17.294222 74.524444-11.45363 17.825185-28.027259 31.592296-48.355556 40.580741-19.380148 8.647111-37.850074 12.09837-70.921481 12.591408L783.17037 834.37037v-75.851851l13.198223-0.151704 10.467555-0.417185c12.439704-0.83437 19.152593-2.541037 25.865482-5.537186a33.867852 33.867852 0 0 0 15.36-12.325925c3.147852-4.93037 4.626963-9.481481 5.082074-22.224593l0.151703-11.264V241.588148l-0.151703-11.264c-0.455111-12.781037-1.896296-17.332148-5.082074-22.224592a33.867852 33.867852 0 0 0-15.36-12.325926c-6.712889-3.034074-13.425778-4.702815-25.865482-5.537186l-10.467555-0.417185A450.294519 450.294519 0 0 0 790.186667 189.62963H385.517037l-12.781037 0.341333c-15.018667 0.682667-22.376296 2.427259-29.771852 5.688889a33.867852 33.867852 0 0 0-15.36 12.363852c-3.147852 4.93037-4.626963 9.481481-5.082074 22.224592L322.37037 241.550222H246.518519c0-35.195259 4.551111-54.651259 17.294222-74.524444 11.45363-17.825185 28.027259-31.592296 48.355555-40.580741 19.380148-8.647111 37.850074-12.09837 70.921482-12.591407L392.533333 113.777778H783.17037z" fill="#1296db" p-id="3093"></path></svg>